<?xml version="1.0"?>
<svg version="1.1" xmlns="http://www.w3.org/2000/svg" xmlns:xlink="http://www.w3.org/1999/xlink" width="512" height="512">
    <desc iVinci="yes" version="4.5" gridStep="20" showGrid="no" snapToGrid="no" codePlatform="0"/>
    <g id="Layer1" visibility="hidden" opacity="1">
        <g id="Shape1">
            <desc shapeID="1" type="0" basicInfo-basicType="1" basicInfo-roundedRectRadius="12" basicInfo-polygonSides="6" basicInfo-starPoints="5" bounding="rect(-44,-48,88,96.0001)" text="" font-familyName="Helvetica" font-pixelSize="20" font-bold="0" font-underline="0" font-alignment="1" strokeStyle="0" markerStart="0" markerEnd="0" shadowEnabled="0" shadowOffsetX="0" shadowOffsetY="2" shadowBlur="4" shadowOpacity="160" blurEnabled="0" blurRadius="4" transform="matrix(5.81818,0,0,5.33333,256,256)" pers-center="0,0" pers-size="0,0" pers-start="0,0" pers-end="0,0" locked="0" mesh="" flag=""/>
            <path id="shapePath1" d="M0,0 L512,0 L512,512 L0,512 L0,0 Z" style="stroke:none;fill-rule:evenodd;fill:#1a2526;fill-opacity:1;"/>
        </g>
    </g>
    <g id="Layer2" opacity="1">
        <g id="Shape2">
            <desc shapeID="2" type="0" basicInfo-basicType="0" basicInfo-roundedRectRadius="12" basicInfo-polygonSides="6" basicInfo-starPoints="5" bounding="rect(-228.302,-36.9362,456.603,73.8725)" text="NUTMEG" font-familyName="Rammetto One" font-pixelSize="90" font-bold="0" font-underline="0" font-alignment="1" strokeStyle="0" markerStart="0" markerEnd="0" shadowEnabled="0" shadowOffsetX="0" shadowOffsetY="2" shadowBlur="4" shadowOpacity="160" blurEnabled="0" blurRadius="4" transform="matrix(1.03435,0,0,1.03435,256.01,443.588)" pers-center="0,0" pers-size="0,0" pers-start="0,0" pers-end="0,0" locked="0" mesh="" flag=""/>
            <path id="shapePath2" d="M19.8654,407.429 L27.229,407.429 L66.8655,435.702 L66.8655,407.429 L92.4565,407.429 L92.4565,480.02 L82.6838,480.02 L45.3654,455.066 L45.3654,480.02 L19.8654,480.02 L19.8654,407.429 M138.995,481.793 C114.904,481.793 102.859,471.551 102.859,451.066 L102.859,407.429 L131.541,407.429 L131.541,450.248 C131.541,454.55 132.98,457.353 135.858,458.656 C136.859,459.111 138.056,459.338 139.45,459.338 C143.389,459.338 145.874,457.459 146.904,453.702 C147.207,452.581 147.359,451.368 147.359,450.065 L147.359,407.429 L172.495,407.429 L172.495,451.066 C172.495,471.551 161.329,481.793 138.995,481.793 M179.937,407.429 L248.665,407.429 L248.665,430.975 L228.437,430.975 L228.437,480.02 L200.164,480.02 L200.164,430.975 L179.937,430.975 L179.937,407.429 M256.747,407.429 L267.156,407.429 L302.247,440.384 L338.293,407.429 L348.338,407.429 L348.338,480.02 L318.474,480.02 L318.474,456.475 L299.93,476.838 L281.884,457.02 L281.884,480.02 L256.747,480.02 L256.747,407.429 M359.519,407.429 L411.838,407.429 L411.838,428.338 L387.792,428.338 L387.792,434.293 L411.746,434.293 L411.746,452.111 L387.792,452.111 L387.792,458.975 L413.429,458.975 L413.429,480.02 L359.519,480.02 L359.519,407.429 M482.244,445.474 L489.199,445.429 C490.895,445.429 491.881,445.414 492.153,445.383 L492.153,479.111 C481.517,480.899 473.031,481.793 466.699,481.793 C460.365,481.793 454.425,480.892 448.88,479.089 C443.335,477.285 438.532,474.717 434.472,471.384 C430.41,468.05 427.229,464.012 424.925,459.27 C422.623,454.528 421.471,449.217 421.471,443.338 C421.471,431.793 426.07,422.581 435.267,415.702 C444.464,408.823 456.259,405.383 470.653,405.383 C477.713,405.383 483.305,406.141 487.426,407.657 C488.153,407.929 488.547,408.065 488.608,408.065 L488.608,430.02 C484.153,428.656 480.062,427.974 476.335,427.974 C469.547,427.974 464.229,429.778 460.38,433.383 C456.532,436.99 454.623,441.141 454.653,445.838 C454.653,449.111 455.554,451.793 457.358,453.884 C459.161,455.974 461.638,457.02 464.789,457.02 C466.487,457.02 467.79,456.808 468.699,456.384 C468.759,455.262 468.789,453.823 468.789,452.065 L468.789,445.474 C473.275,445.474 477.76,445.474 482.244,445.474 Z" style="stroke:none;fill-rule:evenodd;fill:#d9d1ba;fill-opacity:1;"/>
        </g>
        <g id="Shape3">
            <desc shapeID="3" type="0" basicInfo-basicType="0" basicInfo-roundedRectRadius="12" basicInfo-polygonSides="6" basicInfo-starPoints="5" bounding="rect(-37.1365,-26.3542,74.2729,52.7084)" text="" font-familyName="" font-pixelSize="20" font-bold="0" font-underline="0" font-alignment="1" strokeStyle="0" markerStart="0" markerEnd="0" shadowEnabled="0" shadowOffsetX="0" shadowOffsetY="2" shadowBlur="4" shadowOpacity="160" blurEnabled="0" blurRadius="4" transform="matrix(6.35906,0,0,6.35906,256,197.795)" pers-center="0,0" pers-size="0,0" pers-start="0,0" pers-end="0,0" locked="0" mesh="" flag=""/>
            <path id="shapePath3" d="M168.447,58.2404 C134.177,62.0988 125.841,64.5995 123.297,74.774 C121.39,83.0407 101.519,104.761 66.5444,121.295 C2.95377,151.182 14.0686,149.811 42.5377,194.324 C42.5377,194.324 63.5154,208.154 66.5444,219.297 C70.1292,232.484 60.3431,259.822 60.3431,259.822 C60.3431,259.822 77.8677,250.565 84.7716,243.661 C90.0595,238.373 100.455,219.297 100.455,219.297 C100.455,219.297 124.855,220.596 142.993,215.945 C163.974,210.564 212.493,194.324 212.493,194.324 C212.493,194.324 198.155,203.863 190.375,207.474 C182.545,211.107 165.903,219.297 165.903,219.297 C165.903,219.297 171.679,263.787 176.686,287.323 C182.294,313.679 197.698,365.383 197.698,365.383 C197.698,365.383 246.92,325.922 274.47,310.895 C302.269,295.733 362.601,275.439 362.601,275.439 C362.601,275.439 317.674,236.476 303.93,210.84 C291.515,187.682 286.725,133.913 286.725,133.913 C286.725,133.913 304.529,119.83 315.038,116.108 C325.393,112.44 347.772,112.292 347.772,112.292 L358.555,76.5224 L357.194,116.108 C357.194,116.108 369.097,122.547 374.549,126.935 C380.395,131.64 390.378,142.816 390.378,142.816 L433.62,116.108 L399.281,153.626 C399.281,153.626 411.644,169.181 416.45,177.973 C420.872,186.063 425.444,203.484 425.444,203.484 L465.696,208.95 L426.533,214.542 C426.533,214.542 422.83,238.995 419.719,250.752 C416.65,262.355 408.166,283.97 408.166,283.97 L426.533,294.716 L405.64,292.254 C405.64,292.254 383.609,309.937 371.486,317.092 C357.645,325.26 343.468,333.471 328.059,338.039 C269.671,355.349 278.458,368.562 324.88,359.66 C455.088,334.688 530.913,203.863 471.774,103.39 C441.401,55.446 380.043,28.85 324.244,30.2605 C270.705,30.2054 303.93,42.9864 168.447,58.2404 Z" style="stroke:none;fill-rule:evenodd;fill:#d9d1ba;fill-opacity:1;"/>
        </g>
    </g>
</svg>
