<?xml version="1.0"?>
<svg version="1.1" xmlns="http://www.w3.org/2000/svg" xmlns:xlink="http://www.w3.org/1999/xlink" width="512" height="490">
    <desc iVinci="yes" version="4.5" gridStep="20" showGrid="no" snapToGrid="no" codePlatform="0"/>
    <g id="Layer1" visibility="hidden" opacity="1">
        <g id="Shape1">
            <desc shapeID="1" type="0" basicInfo-basicType="1" basicInfo-roundedRectRadius="12" basicInfo-polygonSides="6" basicInfo-starPoints="5" bounding="rect(-44,-48,88,96.0001)" text="" font-familyName="Helvetica" font-pixelSize="20" font-bold="0" font-underline="0" font-alignment="1" strokeStyle="0" markerStart="0" markerEnd="0" shadowEnabled="0" shadowOffsetX="0" shadowOffsetY="2" shadowBlur="4" shadowOpacity="160" blurEnabled="0" blurRadius="4" transform="matrix(5.81818,0,0,5.10416,256,245)" pers-center="0,0" pers-size="0,0" pers-start="0,0" pers-end="0,0" locked="0" mesh="" flag=""/>
            <path id="shapePath1" d="M0,0.000228882 L512,0.000228882 L512,490 L0,490 L0,0.000228882 Z" style="stroke:none;fill-rule:evenodd;fill:#1e1e1e;fill-opacity:1;"/>
        </g>
    </g>
    <g id="Layer2" opacity="1">
        <g id="Shape2">
            <desc shapeID="2" type="0" basicInfo-basicType="0" basicInfo-roundedRectRadius="12" basicInfo-polygonSides="6" basicInfo-starPoints="5" bounding="rect(-228.302,-36.9363,456.604,73.8726)" text="NUTMEG" font-familyName="Rammetto One" font-pixelSize="90" font-bold="0" font-underline="0" font-alignment="1" strokeStyle="0" markerStart="0" markerEnd="0" shadowEnabled="0" shadowOffsetX="0" shadowOffsetY="2" shadowBlur="4" shadowOpacity="160" blurEnabled="0" blurRadius="4" transform="matrix(1.1212,0,0,1.1212,256.027,448.587)" pers-center="0,0" pers-size="0,0" pers-start="0,0" pers-end="0,0" locked="0" mesh="" flag=""/>
            <path id="shapePath2" d="M0.0548248,409.392 L8.03667,409.392 L51.0014,440.039 L51.0014,409.392 L78.7412,409.392 L78.7412,488.078 L68.1479,488.078 L27.696,461.029 L27.696,488.078 L0.0548248,488.078 L0.0548248,409.392 M129.187,490 C103.074,490 90.0172,478.898 90.0172,456.693 L90.0172,409.392 L121.107,409.392 L121.107,455.806 C121.107,460.47 122.667,463.508 125.787,464.92 C126.872,465.414 128.17,465.66 129.681,465.66 C133.95,465.66 136.644,463.623 137.76,459.55 C138.089,458.335 138.254,457.02 138.254,455.608 L138.254,409.392 L165.5,409.392 L165.5,456.693 C165.5,478.898 153.397,490 129.187,490 M173.567,409.392 L248.066,409.392 L248.066,434.915 L226.139,434.915 L226.139,488.078 L195.493,488.078 L195.493,434.915 L173.567,434.915 L173.567,409.392 M256.827,409.392 L268.11,409.392 L306.147,445.114 L345.22,409.392 L356.108,409.392 L356.108,488.078 L323.737,488.078 L323.737,462.556 L303.636,484.629 L284.074,463.147 L284.074,488.078 L256.827,488.078 L256.827,409.392 M368.228,409.392 L424.94,409.392 L424.94,432.057 L398.875,432.057 L398.875,438.512 L424.84,438.512 L424.84,457.826 L398.875,457.826 L398.875,465.266 L426.665,465.266 L426.665,488.078 L368.228,488.078 L368.228,409.392 M501.258,450.632 L508.797,450.583 C510.635,450.583 511.704,450.566 511.999,450.533 L511.999,487.093 C500.47,489.031 491.271,490 484.408,490 C477.542,490 471.103,489.023 465.092,487.069 C459.082,485.114 453.875,482.33 449.475,478.717 C445.071,475.103 441.623,470.726 439.126,465.586 C436.631,460.446 435.382,454.689 435.382,448.316 C435.382,435.802 440.367,425.816 450.336,418.36 C460.306,410.903 473.091,407.174 488.694,407.174 C496.346,407.174 502.408,407.996 506.875,409.639 C507.663,409.934 508.09,410.081 508.156,410.081 L508.156,433.88 C503.327,432.401 498.893,431.662 494.853,431.662 C487.495,431.662 481.73,433.618 477.558,437.525 C473.387,441.435 471.318,445.935 471.35,451.026 C471.35,454.574 472.327,457.481 474.282,459.748 C476.237,462.013 478.922,463.147 482.337,463.147 C484.178,463.147 485.59,462.917 486.576,462.458 C486.641,461.241 486.673,459.682 486.673,457.776 L486.673,450.632 C491.536,450.632 496.397,450.632 501.258,450.632 Z" style="stroke:none;fill-rule:evenodd;fill:#e1e1e1;fill-opacity:1;"/>
        </g>
        <g id="Shape3">
            <desc shapeID="3" type="0" basicInfo-basicType="0" basicInfo-roundedRectRadius="12" basicInfo-polygonSides="6" basicInfo-starPoints="5" bounding="rect(-37.1365,-26.3542,74.273,52.7085)" text="" font-familyName="" font-pixelSize="20" font-bold="0" font-underline="0" font-alignment="1" strokeStyle="0" markerStart="0" markerEnd="0" shadowEnabled="0" shadowOffsetX="0" shadowOffsetY="2" shadowBlur="4" shadowOpacity="160" blurEnabled="0" blurRadius="4" transform="matrix(6.89242,0,0,6.89242,256,181.644)" pers-center="0,0" pers-size="0,0" pers-start="0,0" pers-end="0,0" locked="0" mesh="" flag=""/>
            <path id="shapePath3" d="M161.103,30.3846 C123.959,34.5666 114.924,37.277 112.166,48.3049 C110.1,57.265 88.5618,80.807 50.6538,98.7278 C-18.2705,131.122 -6.22345,129.636 24.6335,177.882 C24.6335,177.882 47.3707,192.872 50.6538,204.95 C54.5392,219.243 43.9323,248.874 43.9323,248.874 C43.9323,248.874 62.9268,238.84 70.4097,231.357 C76.1412,225.626 87.4086,204.95 87.4086,204.95 C87.4086,204.95 113.855,206.358 133.514,201.317 C156.255,195.484 208.844,177.882 208.844,177.882 C208.844,177.882 193.303,188.221 184.871,192.135 C176.384,196.073 158.346,204.95 158.346,204.95 C158.346,204.95 164.606,253.171 170.033,278.681 C176.112,307.248 192.808,363.289 192.808,363.289 C192.808,363.289 246.158,320.518 276.019,304.23 C306.15,287.797 371.542,265.801 371.542,265.801 C371.542,265.801 322.847,223.57 307.95,195.783 C294.494,170.683 289.302,112.404 289.302,112.404 C289.302,112.404 308.599,97.14 319.99,93.1058 C331.213,89.1301 355.469,88.9697 355.469,88.9697 L367.157,50.2 L365.681,93.1058 C365.681,93.1058 378.583,100.085 384.492,104.841 C390.828,109.941 401.649,122.054 401.649,122.054 L448.518,93.1058 L411.298,133.771 C411.298,133.771 424.698,150.63 429.908,160.16 C434.7,168.928 439.656,187.81 439.656,187.81 L483.284,193.735 L440.836,199.796 C440.836,199.796 436.823,226.3 433.451,239.043 C430.124,251.619 420.929,275.047 420.929,275.047 L440.836,286.694 L418.191,284.026 C418.191,284.026 394.312,303.192 381.172,310.947 C366.17,319.8 350.804,328.7 334.103,333.651 C270.818,352.413 280.342,366.734 330.657,357.086 C471.786,330.019 553.971,188.221 489.872,79.321 C456.951,27.3558 390.447,-1.47096 329.968,0.0578461 C271.938,-0.00187683 307.95,13.8511 161.103,30.3846 Z" style="stroke:none;fill-rule:evenodd;fill:#e1e1e1;fill-opacity:1;"/>
        </g>
    </g>
</svg>
