<?xml version="1.0"?>
<svg version="1.1" xmlns="http://www.w3.org/2000/svg" xmlns:xlink="http://www.w3.org/1999/xlink" width="512" height="130">
    <desc iVinci="yes" version="4.5" gridStep="20" showGrid="no" snapToGrid="no" codePlatform="0"/>
    <g id="Layer1" visibility="hidden" opacity="1">
        <g id="Shape1">
            <desc shapeID="1" type="0" basicInfo-basicType="1" basicInfo-roundedRectRadius="12" basicInfo-polygonSides="6" basicInfo-starPoints="5" bounding="rect(-285.5,-84.5,571,169)" text="" font-familyName="Helvetica" font-pixelSize="20" font-bold="0" font-underline="0" font-alignment="1" strokeStyle="0" markerStart="0" markerEnd="0" shadowEnabled="0" shadowOffsetX="0" shadowOffsetY="2" shadowBlur="4" shadowOpacity="160" blurEnabled="0" blurRadius="4" transform="matrix(0.896673,0,0,-0.941811,256,79.583)" pers-center="0,0" pers-size="0,0" pers-start="0,0" pers-end="0,0" locked="0" mesh="" flag=""/>
            <path id="shapePath1" d="M-3.05176e-05,159.166 L512,159.166 L512,0 L-3.05176e-05,0 L-3.05176e-05,159.166 Z" style="stroke:none;fill-rule:evenodd;fill:#d9d1ba;fill-opacity:1;"/>
        </g>
    </g>
    <g id="Layer2" opacity="1">
        <g id="Shape2">
            <desc shapeID="2" type="0" basicInfo-basicType="0" basicInfo-roundedRectRadius="12" basicInfo-polygonSides="6" basicInfo-starPoints="5" bounding="rect(-228.302,-36.9357,456.604,73.8714)" text="NUTMEG" font-familyName="Rammetto One" font-pixelSize="90" font-bold="0" font-underline="0" font-alignment="1" strokeStyle="0" markerStart="0" markerEnd="0" shadowEnabled="0" shadowOffsetX="0" shadowOffsetY="2" shadowBlur="4" shadowOpacity="160" blurEnabled="0" blurRadius="4" transform="matrix(0.703505,0,0,0.703505,351.388,64.8692)" pers-center="0,0" pers-size="0,0" pers-start="0,0" pers-end="0,0" locked="0" mesh="" flag=""/>
            <path id="shapePath2" d="M190.777,40.2749 L195.785,40.2749 L222.744,59.505 L222.744,40.2749 L240.149,40.2749 L240.149,89.6483 L233.502,89.6483 L208.12,72.6752 L208.12,89.6483 L190.777,89.6483 L190.777,40.2749 M271.801,90.8536 C255.416,90.8536 247.224,83.8868 247.224,69.9545 L247.224,40.2749 L266.731,40.2749 L266.731,69.3982 C266.731,72.3247 267.711,74.231 269.669,75.1172 C270.349,75.4264 271.163,75.581 272.111,75.581 C274.79,75.581 276.481,74.3028 277.181,71.7476 C277.388,70.9855 277.49,70.1603 277.49,69.2741 L277.49,40.2749 L294.587,40.2749 L294.587,69.9545 C294.587,83.8868 286.992,90.8536 271.801,90.8536 M299.648,40.2749 L346.393,40.2749 L346.393,56.29 L332.635,56.29 L332.635,89.6483 L313.406,89.6483 L313.406,56.29 L299.648,56.29 L299.648,40.2749 M351.89,40.2749 L358.97,40.2749 L382.837,62.6895 L407.353,40.2749 L414.185,40.2749 L414.185,89.6483 L393.874,89.6483 L393.874,73.6333 L381.26,87.484 L368.987,74.0045 L368.987,89.6483 L351.89,89.6483 L351.89,40.2749 M421.79,40.2749 L457.374,40.2749 L457.374,54.4969 L441.02,54.4969 L441.02,58.5469 L457.313,58.5469 L457.313,70.6655 L441.02,70.6655 L441.02,75.3339 L458.456,75.3339 L458.456,89.6483 L421.79,89.6483 L421.79,40.2749 M505.261,66.1516 L509.99,66.1211 C511.144,66.1211 511.815,66.1102 512,66.0896 L512,89.0299 C504.766,90.246 498.995,90.8536 494.687,90.8536 C490.379,90.8536 486.34,90.2406 482.569,89.0136 C478.796,87.7877 475.53,86.0414 472.768,83.7736 C470.006,81.5069 467.842,78.7601 466.276,75.5353 C464.709,72.3094 463.927,68.697 463.927,64.6993 C463.927,56.8463 467.053,50.5807 473.309,45.9025 C479.564,41.2232 487.587,38.8847 497.376,38.8847 C502.179,38.8847 505.982,39.3996 508.785,40.4295 C509.279,40.6157 509.547,40.7082 509.589,40.7082 L509.589,55.64 C506.559,54.7135 503.777,54.2497 501.241,54.2497 C496.625,54.2497 493.007,55.4756 490.39,57.9285 C487.773,60.3814 486.474,63.2044 486.495,66.3988 C486.495,68.6252 487.108,70.4488 488.335,71.8717 C489.56,73.2936 491.246,74.0045 493.388,74.0045 C494.542,74.0045 495.429,73.8597 496.047,73.5712 C496.088,72.8091 496.109,71.8304 496.109,70.635 L496.109,66.1516 C499.16,66.1516 502.21,66.1516 505.261,66.1516 Z" style="stroke:none;fill-rule:evenodd;fill:#e1e1e1;fill-opacity:1;"/>
        </g>
        <g id="Shape3">
            <desc shapeID="3" type="0" basicInfo-basicType="0" basicInfo-roundedRectRadius="12" basicInfo-polygonSides="6" basicInfo-starPoints="5" bounding="rect(-37.1365,-26.3544,74.273,52.7086)" text="" font-familyName="" font-pixelSize="20" font-bold="0" font-underline="0" font-alignment="1" strokeStyle="0" markerStart="0" markerEnd="0" shadowEnabled="0" shadowOffsetX="0" shadowOffsetY="2" shadowBlur="4" shadowOpacity="160" blurEnabled="0" blurRadius="4" transform="matrix(2.46142,0,0,2.46142,91.4086,64.8691)" pers-center="0,0" pers-size="0,0" pers-start="0,0" pers-end="0,0" locked="0" mesh="" flag=""/>
            <path id="shapePath3" d="M57.5191,10.8512 C44.2544,12.3449 41.0276,13.3128 40.0431,17.2507 C39.3046,20.4505 31.6131,28.8586 18.0753,35.2581 C-6.53886,46.8268 -2.23657,46.2955 8.783,63.5256 C8.783,63.5256 16.9029,68.8789 18.0753,73.1923 C19.4629,78.2963 15.675,88.8786 15.675,88.8786 C15.675,88.8786 22.4583,85.2945 25.1305,82.6228 C27.1775,80.576 31.2012,73.1923 31.2012,73.1923 C31.2012,73.1923 40.6461,73.6953 47.6665,71.8946 C55.7877,69.8119 74.5681,63.5256 74.5681,63.5256 C74.5681,63.5256 69.0183,67.2175 66.0067,68.6154 C62.976,70.022 56.5345,73.1923 56.5345,73.1923 C56.5345,73.1923 58.7701,90.4126 60.7085,99.523 C62.8791,109.724 68.8416,129.738 68.8416,129.738 C68.8416,129.738 87.8944,114.464 98.5574,108.648 C109.318,102.778 132.671,94.9232 132.671,94.9232 C132.671,94.9232 115.281,79.8412 109.961,69.9186 C105.155,60.9551 103.302,40.1421 103.302,40.1421 C103.302,40.1421 110.192,34.6909 114.261,33.2505 C118.269,31.8308 126.932,31.7731 126.932,31.7731 L131.105,17.9279 L130.578,33.2505 C130.578,33.2505 135.185,35.7426 137.296,37.441 C139.559,39.2624 143.422,43.5879 143.422,43.5879 L160.16,33.2505 L146.868,47.7729 C146.868,47.7729 151.654,53.7936 153.515,57.1969 C155.226,60.328 156.995,67.0716 156.995,67.0716 L172.576,69.187 L157.417,71.3513 C157.417,71.3513 155.984,80.8167 154.78,85.3675 C153.592,89.8585 150.307,98.2253 150.307,98.2253 L157.417,102.384 L149.33,101.432 C149.33,101.432 140.803,108.276 136.109,111.046 C130.753,114.208 125.265,117.386 119.301,119.154 C96.7,125.854 100.101,130.969 118.07,127.523 C168.471,117.857 197.82,67.2175 174.929,28.3273 C163.173,9.77011 139.422,-0.524803 117.824,0.0206223 C97.1006,-5.34058e-05 109.961,4.94709 57.5191,10.8512 Z" style="stroke:none;fill-rule:evenodd;fill:#e1e1e1;fill-opacity:1;"/>
        </g>
    </g>
</svg>
