<?xml version="1.0"?>
<svg version="1.1" xmlns="http://www.w3.org/2000/svg" xmlns:xlink="http://www.w3.org/1999/xlink" width="512" height="512">
    <desc iVinci="yes" version="4.6" gridStep="20" showGrid="no" snapToGrid="no" codePlatform="0"/>
    <g id="Layer1" name="Layer 1" opacity="1">
        <g id="Shape1">
            <desc shapeID="1" type="0" basicInfo-basicType="0" basicInfo-roundedRectRadius="12" basicInfo-polygonSides="6" basicInfo-starPoints="5" bounding="rect(-36.5057,-26.3542,73.0113,52.7084)" text="" font-familyName="" font-pixelSize="20" font-bold="0" font-underline="0" font-alignment="1" strokeStyle="0" markerStart="0" markerEnd="0" shadowEnabled="0" shadowOffsetX="0" shadowOffsetY="2" shadowBlur="4" shadowOpacity="160" blurEnabled="0" blurRadius="4" transform="matrix(6.97684,0,0,6.97684,256,196.526)" pers-center="0,0" pers-size="0,0" pers-start="0,0" pers-end="0,0" locked="0" mesh="" flag=""/>
            <path id="shapePath1" d="M155.54,43.4138 C117.941,47.647 108.795,50.3906 106.003,61.5536 C103.913,70.6234 75.637,84.5949 43.7378,112.594 C3.32455,148.066 -13.8361,143.88 17.3989,192.718 C17.3989,192.718 40.4145,207.891 43.7378,220.117 C47.6708,234.585 36.934,264.578 36.934,264.578 C36.934,264.578 56.1611,254.422 63.7357,246.848 C69.5374,241.046 80.9428,220.117 80.9428,220.117 C80.9428,220.117 107.713,221.542 127.614,216.439 C150.632,210.535 203.866,192.718 203.866,192.718 C203.866,192.718 188.134,203.184 179.599,207.145 C171.009,211.131 152.749,220.117 152.749,220.117 C152.749,220.117 159.086,268.928 164.579,294.751 C170.732,323.668 187.633,380.395 187.633,380.395 C187.633,380.395 241.637,337.1 271.864,320.613 C302.363,303.979 368.556,281.714 368.556,281.714 C368.556,281.714 319.265,238.965 304.186,210.838 C290.564,185.43 285.309,126.437 285.309,126.437 C285.309,126.437 304.842,110.987 316.373,106.903 C327.733,102.879 352.287,102.716 352.287,102.716 L364.117,63.4718 L362.624,106.903 C362.624,106.903 375.684,113.967 381.665,118.781 C388.079,123.944 399.032,136.206 399.032,136.206 L446.475,106.903 L408.799,148.066 C408.799,148.066 422.363,165.132 427.638,174.779 C432.487,183.654 437.504,202.767 437.504,202.767 L481.668,208.765 L438.699,214.9 C438.699,214.9 434.636,241.729 431.223,254.627 C427.855,267.357 418.548,291.072 418.548,291.072 L438.699,302.861 L415.776,300.161 C415.776,300.161 391.605,319.562 378.304,327.412 C363.119,336.374 347.564,345.382 330.658,350.394 C266.599,369.386 276.239,383.882 327.171,374.117 C470.028,346.718 553.219,203.184 488.336,92.9496 C455.012,40.3478 387.693,11.1681 326.473,12.7156 C267.732,12.6551 304.186,26.6778 155.54,43.4138 Z" style="stroke:none;fill-rule:evenodd;fill:#1d1d1d;fill-opacity:1;"/>
        </g>
        <g id="Shape2">
            <desc shapeID="2" type="0" basicInfo-basicType="0" basicInfo-roundedRectRadius="12" basicInfo-polygonSides="6" basicInfo-starPoints="5" bounding="rect(-38.8042,-38.804,77.6084,77.608)" text="" font-familyName="Rammetto One" font-pixelSize="90" font-bold="0" font-underline="0" font-alignment="1" strokeStyle="0" markerStart="0" markerEnd="0" shadowEnabled="0" shadowOffsetX="0" shadowOffsetY="2" shadowBlur="4" shadowOpacity="160" blurEnabled="0" blurRadius="4" transform="matrix(1.00565,0,0,1.00565,41.2046,458.326)" pers-center="0,0" pers-size="0,0" pers-start="0,0" pers-end="0,0" locked="0" mesh="" flag=""/>
            <path id="shapePath2" d="M2.18125,419.302 L10.0982,419.302 L52.7137,449.7 L52.7137,419.302 L80.228,419.302 L80.228,497.349 L69.7208,497.349 L29.5977,470.519 L29.5977,497.349 L2.18125,497.349 L2.18125,419.302 Z" style="stroke:none;fill-rule:evenodd;fill:#1d1d1d;fill-opacity:1;"/>
        </g>
        <g id="Shape3">
            <desc shapeID="3" type="0" basicInfo-basicType="0" basicInfo-roundedRectRadius="12" basicInfo-polygonSides="6" basicInfo-starPoints="5" bounding="rect(-37.2246,-39.7515,74.4492,79.503)" text="" font-familyName="Rammetto One" font-pixelSize="90" font-bold="0" font-underline="0" font-alignment="1" strokeStyle="0" markerStart="0" markerEnd="0" shadowEnabled="0" shadowOffsetX="0" shadowOffsetY="2" shadowBlur="4" shadowOpacity="160" blurEnabled="0" blurRadius="4" transform="matrix(1.00565,0,0,1.00565,128.847,459.278)" pers-center="0,0" pers-size="0,0" pers-start="0,0" pers-end="0,0" locked="0" mesh="" flag=""/>
            <path id="shapePath3" d="M130.264,499.255 C104.363,499.255 91.4123,488.243 91.4123,466.219 L91.4123,419.302 L122.25,419.302 L122.25,465.339 C121.62,470.348 125.516,475.555 130.754,475.113 C136.305,475.666 139.566,470.051 139.257,465.142 L139.257,419.302 L166.282,419.302 L166.282,466.219 C166.282,488.243 154.277,499.255 130.264,499.255 Z" style="stroke:none;fill-rule:evenodd;fill:#1d1d1d;fill-opacity:1;"/>
        </g>
        <g id="Shape4">
            <desc shapeID="4" type="0" basicInfo-basicType="0" basicInfo-roundedRectRadius="12" basicInfo-polygonSides="6" basicInfo-starPoints="5" bounding="rect(-36.739,-38.804,73.478,77.608)" text="" font-familyName="Rammetto One" font-pixelSize="90" font-bold="0" font-underline="0" font-alignment="1" strokeStyle="0" markerStart="0" markerEnd="0" shadowEnabled="0" shadowOffsetX="0" shadowOffsetY="2" shadowBlur="4" shadowOpacity="160" blurEnabled="0" blurRadius="4" transform="matrix(1.00565,0,0,1.00565,211.23,458.326)" pers-center="0,0" pers-size="0,0" pers-start="0,0" pers-end="0,0" locked="0" mesh="" flag=""/>
            <path id="shapePath4" d="M174.283,419.302 L248.176,419.302 L248.176,444.618 L226.428,444.618 L226.428,497.349 L196.031,497.349 L196.031,444.618 L174.283,444.618 L174.283,419.302 Z" style="stroke:none;fill-rule:evenodd;fill:#1d1d1d;fill-opacity:1;"/>
        </g>
        <g id="Shape5">
            <desc shapeID="5" type="0" basicInfo-basicType="0" basicInfo-roundedRectRadius="12" basicInfo-polygonSides="6" basicInfo-starPoints="5" bounding="rect(-48.9605,-38.804,97.921,77.608)" text="" font-familyName="Rammetto One" font-pixelSize="90" font-bold="0" font-underline="0" font-alignment="1" strokeStyle="0" markerStart="0" markerEnd="0" shadowEnabled="0" shadowOffsetX="0" shadowOffsetY="2" shadowBlur="4" shadowOpacity="160" blurEnabled="0" blurRadius="4" transform="matrix(1.00565,0,0,1.00565,306.103,458.326)" pers-center="0,0" pers-size="0,0" pers-start="0,0" pers-end="0,0" locked="0" mesh="" flag=""/>
            <path id="shapePath5" d="M256.866,419.302 L268.058,419.302 L305.786,454.733 L344.54,419.302 L355.34,419.302 L355.34,497.349 L323.233,497.349 L323.233,472.034 L303.295,493.928 L283.892,472.62 L283.892,497.349 L256.866,497.349 L256.866,419.302 Z" style="stroke:none;fill-rule:evenodd;fill:#1d1d1d;fill-opacity:1;"/>
        </g>
        <g id="Shape6">
            <desc shapeID="6" type="0" basicInfo-basicType="0" basicInfo-roundedRectRadius="12" basicInfo-polygonSides="6" basicInfo-starPoints="5" bounding="rect(-28.8185,-38.804,57.637,77.608)" text="" font-familyName="Rammetto One" font-pixelSize="90" font-bold="0" font-underline="0" font-alignment="1" strokeStyle="0" markerStart="0" markerEnd="0" shadowEnabled="0" shadowOffsetX="0" shadowOffsetY="2" shadowBlur="4" shadowOpacity="160" blurEnabled="0" blurRadius="4" transform="matrix(1.00565,0,0,1.00565,396.343,458.326)" pers-center="0,0" pers-size="0,0" pers-start="0,0" pers-end="0,0" locked="0" mesh="" flag=""/>
            <path id="shapePath6" d="M367.362,419.302 L423.612,419.302 L423.612,441.783 L397.76,441.783 L397.76,448.186 L423.514,448.186 L423.514,467.342 L397.76,467.342 L397.76,474.722 L425.324,474.722 L425.324,497.349 L367.362,497.349 L367.362,419.302 Z" style="stroke:none;fill-rule:evenodd;fill:#1d1d1d;fill-opacity:1;"/>
        </g>
        <g id="Shape7">
            <desc shapeID="7" type="0" basicInfo-basicType="0" basicInfo-roundedRectRadius="12" basicInfo-polygonSides="6" basicInfo-starPoints="5" bounding="rect(-37.7845,-41.0417,75.569,82.0832)" text="" font-familyName="Rammetto One" font-pixelSize="90" font-bold="0" font-underline="0" font-alignment="1" strokeStyle="0" markerStart="0" markerEnd="0" shadowEnabled="0" shadowOffsetX="0" shadowOffsetY="2" shadowBlur="4" shadowOpacity="160" blurEnabled="0" blurRadius="4" transform="matrix(1.00565,0,0,1.00565,471.967,458.07)" pers-center="0,0" pers-size="0,0" pers-start="0,0" pers-end="0,0" locked="0" mesh="" flag=""/>
            <path id="shapePath7" d="M509.964,460.109 L509.964,496.371 C479.823,504.694 434.132,496.656 433.97,457.909 C433.718,422.943 478.231,410.204 506.152,419.985 L506.152,443.591 C492.387,437.564 469.899,442.955 469.646,460.597 C468.65,468.682 477.468,474.984 484.748,471.937 L484.844,460.207 L509.964,460.109 Z" style="stroke:none;fill-rule:evenodd;fill:#1d1d1d;fill-opacity:1;"/>
        </g>
    </g>
</svg>
