<?xml version="1.0"?>
<svg version="1.1" xmlns="http://www.w3.org/2000/svg" xmlns:xlink="http://www.w3.org/1999/xlink" width="300" height="100">
    <desc iVinci="yes" version="4.6" gridStep="20" showGrid="no" snapToGrid="no" codePlatform="0"/>
    <g id="Layer1" name="Layer 1" opacity="1">
        <g id="Shape1">
            <desc shapeID="1" type="0" basicInfo-basicType="0" basicInfo-roundedRectRadius="12" basicInfo-polygonSides="6" basicInfo-starPoints="5" bounding="rect(-228.301,-37.113,456.604,74.2262)" text="NUTMEG" font-familyName="Rammetto One" font-pixelSize="90" font-bold="0" font-underline="0" font-alignment="1" strokeStyle="0" markerStart="0" markerEnd="0" shadowEnabled="0" shadowOffsetX="0" shadowOffsetY="2" shadowBlur="4" shadowOpacity="160" blurEnabled="0" blurRadius="4" transform="matrix(0.328348,0,0,0.328348,224.962,50)" pers-center="0,0" pers-size="0,0" pers-start="0,0" pers-end="0,0" locked="0" mesh="" flag=""/>
            <path id="shapePath1" d="M150,38.5533 L152.338,38.5533 L164.92,47.5286 L164.92,38.5533 L173.044,38.5533 L173.044,61.5975 L169.941,61.5975 L158.095,53.6756 L158.095,61.5975 L150,61.5975 L150,38.5533 M187.817,62.16 C180.169,62.16 176.346,58.9084 176.346,52.4057 L176.346,38.5533 L185.45,38.5533 L185.45,52.1461 C185.265,53.6248 186.415,55.1624 187.961,55.0318 C189.6,55.1949 190.564,53.5379 190.472,52.0881 L190.472,38.5533 L198.452,38.5533 L198.452,52.4057 C198.452,58.9084 194.907,62.16 187.817,62.16 M200.814,38.5533 L222.631,38.5533 L222.631,46.0281 L216.21,46.0281 L216.21,61.5975 L207.235,61.5975 L207.235,46.0281 L200.814,46.0281 L200.814,38.5533 M225.197,38.5533 L228.502,38.5533 L239.641,49.0149 L251.084,38.5533 L254.272,38.5533 L254.272,61.5975 L244.792,61.5975 L244.792,54.1227 L238.905,60.5873 L233.177,54.296 L233.177,61.5975 L225.197,61.5975 L225.197,38.5533 M257.822,38.5533 L274.43,38.5533 L274.43,45.1912 L266.796,45.1912 L266.796,47.0814 L274.401,47.0814 L274.401,52.7376 L266.796,52.7376 L266.796,54.9164 L274.935,54.9164 L274.935,61.5975 L257.822,61.5975 L257.822,38.5533 M299.925,50.6019 L299.925,61.3088 C291.026,63.7657 277.536,61.3927 277.488,49.9529 C277.413,39.6286 290.556,35.8678 298.8,38.7556 L298.8,45.7247 C294.735,43.9467 288.096,45.5372 288.021,50.7461 C287.727,53.1319 290.331,54.9952 292.48,54.0938 L292.508,50.6308 L299.925,50.6019 Z" style="stroke:none;fill-rule:evenodd;fill:#1e1e1e;fill-opacity:1;"/>
        </g>
        <g id="Shape2">
            <desc shapeID="2" type="0" basicInfo-basicType="0" basicInfo-roundedRectRadius="12" basicInfo-polygonSides="6" basicInfo-starPoints="5" bounding="rect(-36.5057,-26.3542,73.0114,52.7086)" text="" font-familyName="" font-pixelSize="20" font-bold="0" font-underline="0" font-alignment="1" strokeStyle="0" markerStart="0" markerEnd="0" shadowEnabled="0" shadowOffsetX="0" shadowOffsetY="2" shadowBlur="4" shadowOpacity="160" blurEnabled="0" blurRadius="4" transform="matrix(1.84524,0,0,1.84523,67.3618,49.9998)" pers-center="0,0" pers-size="0,0" pers-start="0,0" pers-end="0,0" locked="0" mesh="" flag=""/>
            <path id="shapePath2" d="M40.7919,9.5049 C30.8477,10.6242 28.4289,11.3503 27.6904,14.3028 C27.1374,16.7013 19.6591,20.3962 11.2225,27.8014 C0.53392,37.1834 -4.00476,36.0763 4.25628,48.9925 C4.25628,48.9925 10.3435,53.0055 11.2225,56.2394 C12.2626,60.0657 9.42299,67.9987 9.42299,67.9987 C9.42299,67.9987 14.5082,65.3122 16.5115,63.3094 C18.0459,61.7748 21.0624,56.2394 21.0624,56.2394 C21.0624,56.2394 28.1427,56.6164 33.4058,55.267 C39.494,53.7055 53.5732,48.9925 53.5732,48.9925 C53.5732,48.9925 49.4125,51.7606 47.1551,52.8089 C44.8829,53.8629 40.0538,56.2394 40.0538,56.2394 C40.0538,56.2394 41.7297,69.1491 43.1826,75.9783 C44.8101,83.6267 49.2799,98.6297 49.2799,98.6297 C49.2799,98.6297 63.5628,87.1788 71.557,82.8182 C79.6238,78.4193 97.1306,72.5307 97.1306,72.5307 C97.1306,72.5307 84.0937,61.2241 80.106,53.7854 C76.5033,47.0655 75.1131,31.4628 75.1131,31.4628 C75.1131,31.4628 80.2798,27.3764 83.3293,26.2962 C86.334,25.2324 92.8271,25.1891 92.8271,25.1891 L95.9566,14.8094 L95.5618,26.2962 C95.5618,26.2962 99.0152,28.1653 100.598,29.438 C102.294,30.8036 105.191,34.0466 105.191,34.0466 L117.738,26.2962 L107.774,37.1834 C107.774,37.1834 111.362,41.6965 112.756,44.2484 C114.039,46.5956 115.366,51.6504 115.366,51.6504 L127.046,53.2372 L115.682,54.8599 C115.682,54.8599 114.607,61.9551 113.705,65.3669 C112.814,68.7338 110.353,75.0059 110.353,75.0059 L115.682,78.1239 L109.619,77.4093 C109.619,77.4093 103.226,82.5408 99.7086,84.6171 C95.6923,86.9871 91.5789,89.3693 87.1074,90.695 C70.1643,95.718 72.7146,99.5524 86.1847,96.9687 C123.968,89.7225 145.971,51.7606 128.81,22.6062 C119.997,8.69397 102.192,0.976254 86.0003,1.38581 C70.4646,1.3695 80.106,5.07824 40.7919,9.5049 Z" style="stroke:none;fill-rule:evenodd;fill:#1e1e1e;fill-opacity:1;"/>
        </g>
    </g>
</svg>
